<?xml version="1.0" encoding="UTF-8" standalone="no"?>
<!-- Created with Inkscape (http://www.inkscape.org/) -->

<svg
   xmlns:dc="http://purl.org/dc/elements/1.1/"
   xmlns:cc="http://creativecommons.org/ns#"
   xmlns:rdf="http://www.w3.org/1999/02/22-rdf-syntax-ns#"
   xmlns:svg="http://www.w3.org/2000/svg"
   xmlns="http://www.w3.org/2000/svg"
   xmlns:sodipodi="http://sodipodi.sourceforge.net/DTD/sodipodi-0.dtd"
   xmlns:inkscape="http://www.inkscape.org/namespaces/inkscape"
   version="1.1"
   width="556"
   height="491"
   id="svg2"
   xml:space="preserve"
   inkscape:version="0.48.2 r9819"
   sodipodi:docname="UK_traffic_sign_562.svg"><sodipodi:namedview
     pagecolor="#ffffff"
     bordercolor="#666666"
     borderopacity="1"
     objecttolerance="10"
     gridtolerance="10"
     guidetolerance="10"
     inkscape:pageopacity="0"
     inkscape:pageshadow="2"
     inkscape:window-width="1024"
     inkscape:window-height="706"
     id="namedview9"
     showgrid="false"
     fit-margin-top="0"
     fit-margin-left="0"
     fit-margin-right="0"
     fit-margin-bottom="0"
     inkscape:zoom="0.39333333"
     inkscape:cx="339.996"
     inkscape:cy="300"
     inkscape:window-x="-8"
     inkscape:window-y="-8"
     inkscape:window-maximized="1"
     inkscape:current-layer="svg2" /><defs
     id="defs18" /><metadata
     id="metadata4"><rdf:RDF><cc:Work
         rdf:about=""><dc:format>image/svg+xml</dc:format><dc:type
           rdf:resource="http://purl.org/dc/dcmitype/StillImage" /><dc:title /></cc:Work></rdf:RDF></metadata><path
     d="m 519.93635,491 c 12.41103,-0.28656 24.41323,-6.86749 31.14971,-18.36935 6.62835,-11.62328 6.33092,-25.29748 0.43265,-36.306 L 309.46121,17.72082 C 303.07254,7.19103 291.36746,0.09718 278.09482,0 264.63821,0.0972 252.93139,7.19093 246.51175,17.72082 L 4.4542444,436.32465 c -5.8629161,11.00954 -6.1589084,24.68375 0.4326434,36.306 C 11.659755,484.13221 23.662364,490.71359 36.037621,491 H 519.9482"
     id="path8"
     style="fill:#db0000;fill-opacity:1;fill-rule:nonzero"
     inkscape:connector-curvature="0" /><path
     d="M 278.09349,62.02392 58.098449,442.592 H 497.87593 L 278.09962,62.03005"
     id="path10"
     style="fill:#ffffff;fill-rule:nonzero"
     inkscape:connector-curvature="0" /><path
     d="m 283.07098,344.47895 35.69283,-143.70806 c 0,0 1.54128,-4.22133 1.5142,-10.37329 0.0271,-23.58617 -19.32126,-41.95347 -42.18196,-41.92483 -23.0457,-0.0287 -42.39456,18.33866 -42.39865,41.92483 0.004,6.15185 1.5142,10.37329 1.5142,10.37329 l 35.69282,143.70806 h 10.16697"
     id="path12"
     style="fill:#000000;fill-rule:nonzero"
     inkscape:connector-curvature="0" /><path
     d="m 278.09349,361.12163 c 17.9292,-0.0341 32.53768,14.56005 32.44774,32.63173 0.0901,17.93665 -14.51854,32.53148 -32.44774,32.63172 -18.11522,-0.10085 -32.72371,-14.69507 -32.66443,-32.63172 -0.0594,-18.07168 14.54921,-32.66651 32.66443,-32.63173"
     id="path14"
     style="fill:#000000;fill-rule:nonzero"
     inkscape:connector-curvature="0" /></svg>